<svg preserveAspectRatio="none" overflow="visible" style="display: block;" width="19" height="18" viewBox="0 0 19 18" fill="none" xmlns="http://www.w3.org/2000/svg">
<path id="Vector" fill-rule="evenodd" clip-rule="evenodd" d="M17.8 16.8V16.315C17.8 16.086 17.565 15.71 17.36 15.61L11.7 12.85C10.173 12.105 9.796 10.304 10.89 9.007L11.25 8.579C11.802 7.925 12.3 6.565 12.3 5.711V4C12.3 2.455 11.046 1.2 9.5 1.2C8.75764 1.20079 8.04591 1.49605 7.52098 2.02098C6.99605 2.54591 6.70079 3.25764 6.7 4V5.71C6.7 6.566 7.196 7.92 7.75 8.576L8.11 9.005C9.207 10.304 8.825 12.104 7.3 12.848L1.64 15.61C1.437 15.709 1.2 16.089 1.2 16.315V16.8H17.8ZM0 17V16.315C0 15.63 0.498 14.832 1.114 14.531L6.774 11.769C7.595 11.369 7.786 10.481 7.194 9.779L6.832 9.35C6.096 8.478 5.5 6.85 5.5 5.71V4C5.5 2.93913 5.92143 1.92172 6.67157 1.17157C7.42172 0.421427 8.43913 0 9.5 0C10.5609 0 11.5783 0.421427 12.3284 1.17157C13.0786 1.92172 13.5 2.93913 13.5 4V5.71C13.5 6.85 12.9 8.483 12.168 9.352L11.807 9.78C11.217 10.479 11.401 11.368 12.226 11.77L17.886 14.532C18.501 14.832 19 15.625 19 16.315V17C19 17.2652 18.8946 17.5196 18.7071 17.7071C18.5196 17.8946 18.2652 18 18 18H1C0.734784 18 0.48043 17.8946 0.292893 17.7071C0.105357 17.5196 0 17.2652 0 17Z" fill="#4F635B"/>
</svg>
